# xmcd
#
# Track frame offsets:
#	150
#	12884
#	24074
#	37467
#	50579
#	63261
#	78272
#	92617
#	103863
#	116907
#	129682
#	145086
#	159100
#	168646
#
# Disc length: 2418 seconds
#
# Revision: 0
# Processed by: cddbd v1.5.1PL0 Copyright (c) Steve Scherf et al.
# Submitted via: audiograbber 1.83.01
#
DISCID=b509700e
DTITLE=Stompin' Tom - Hockey Mom Tribute
DYEAR=2004
DGENRE=Country
TTITLE0=Hockey Mom Tribute aka (My Hockey Mom)
TTITLE1=The Whale And The Rex-n-Dale
TTITLE2=Black Velvet Band
TTITLE3=Just An Old Train
TTITLE4=North Of Old Lake Erie
TTITLE5=Maggie (when you and I were young)
TTITLE6=Down Nova Scotia Way
TTITLE7=My Silver Bell
TTITLE8=If I Hurt Any More
TTITLE9=You Struck Me Out
TTITLE10=Sam McGee
TTITLE11=I Belong To Glasgow
TTITLE12=That "Awful" Thing? aka (The Thing)
TTITLE13=Mirazha aka (Good Night Mirazha)
EXTD=
EXTT0=
EXTT1=
EXTT2=
EXTT3=
EXTT4=
EXTT5=
EXTT6=
EXTT7=
EXTT8=
EXTT9=
EXTT10=
EXTT11=
EXTT12=
EXTT13=
PLAYORDER=
